<?xml version="1.0" standalone="no"?>
<!DOCTYPE svg PUBLIC "-//W3C//DTD SVG 20010904//EN"
 "http://www.w3.org/TR/2001/REC-SVG-20010904/DTD/svg10.dtd">
<svg version="1.0" xmlns="http://www.w3.org/2000/svg"
 width="1000.000000pt" height="1000.000000pt" viewBox="0 0 200.000000 500.000000"
 preserveAspectRatio="xMidYMid meet">

<g transform="translate(0.000000,500.000000) scale(0.100000,-0.100000)"
fill="#FFFFFF" stroke="none">
<path d="M2501 4975 c-121 -22 -147 -69 -100 -187 42 -106 9 -183 -124 -286
-110 -86 -146 -124 -176 -183 -40 -80 -46 -126 -26 -195 15 -51 15 -58 0 -80
-9 -14 -41 -37 -72 -51 -74 -35 -162 -123 -196 -194 -54 -115 -57 -262 -6
-361 11 -22 19 -53 17 -70 -3 -26 -12 -35 -61 -61 -34 -18 -95 -67 -146 -116
-175 -172 -210 -323 -119 -521 74 -163 111 -289 127 -440 11 -96 151 -810 217
-1099 75 -330 106 -444 232 -836 58 -181 72 -214 103 -247 42 -44 70 -48 128
-18 47 23 79 61 126 145 44 78 65 131 251 617 294 773 480 1216 744 1773 100
212 129 284 145 362 35 171 -20 302 -181 429 -44 34 -74 65 -74 76 0 11 27 38
69 68 118 86 170 180 171 306 0 134 -48 230 -157 316 -72 57 -77 73 -42 160
29 72 30 176 2 240 -93 208 -343 384 -646 453 -80 18 -107 18 -206 0z m269
-211 c90 -42 218 -126 288 -189 104 -93 122 -203 46 -278 -43 -43 -75 -56
-203 -83 -139 -30 -579 -104 -615 -104 -20 0 -26 5 -26 23 0 34 114 170 229
272 82 72 108 102 133 153 29 59 31 66 24 142 -3 44 -9 87 -13 96 -5 14 -1 15
28 9 19 -3 68 -22 109 -41z m440 -702 c42 -22 115 -125 131 -185 14 -52 0
-116 -38 -165 -59 -77 -235 -181 -378 -222 -105 -30 -288 -49 -597 -61 -318
-12 -321 -11 -360 69 -52 109 20 289 142 352 78 39 392 117 636 156 138 22
304 54 328 64 36 15 100 11 136 -8z m-16 -791 c147 -72 217 -241 157 -376 -39
-88 -84 -154 -115 -169 -23 -11 -163 -21 -551 -40 -286 -15 -599 -31 -695 -36
-244 -12 -289 1 -322 96 -34 97 -18 212 40 296 49 70 144 140 224 167 72 23
415 65 468 57 19 -3 109 1 200 9 91 8 185 17 210 19 25 2 110 3 190 2 132 -1
149 -3 194 -25z m-64 -760 c20 -6 25 -13 24 -37 -1 -16 -63 -168 -139 -339
-318 -717 -464 -1063 -631 -1499 -47 -120 -94 -232 -106 -249 l-21 -30 -18 35
c-26 51 -140 445 -213 736 -97 388 -186 842 -238 1205 -14 100 -4 135 42 148
14 4 168 7 343 8 275 1 317 3 317 16 0 13 40 15 308 14 169 -1 318 -4 332 -8z"/>
</g>
</svg>
