<?xml version="1.0" standalone="no"?>
<!DOCTYPE svg PUBLIC "-//W3C//DTD SVG 20010904//EN"
 "http://www.w3.org/TR/2001/REC-SVG-20010904/DTD/svg10.dtd">
<svg version="1.0" xmlns="http://www.w3.org/2000/svg"
 width="500.000000pt" height="500.000000pt" viewBox="0 0 500.000000 500.000000"
 preserveAspectRatio="xMidYMid meet">

<g transform="translate(0.000000,500.000000) scale(0.100000,-0.100000)"
fill="#990000" stroke="none">
<path d="M728 3404 c-24 -7 -28 -25 -15 -73 l11 -42 -68 -65 c-68 -64 -68 -65
-63 -109 4 -44 4 -46 -43 -79 -67 -48 -85 -113 -56 -201 6 -16 -2 -28 -39 -55
-53 -39 -95 -103 -95 -144 0 -14 11 -54 25 -88 14 -34 34 -117 46 -184 33
-202 104 -501 150 -639 40 -118 46 -130 68 -130 42 0 75 61 181 334 56 145
147 362 202 483 55 121 102 234 105 253 8 49 -13 99 -58 140 l-41 36 40 38
c68 62 70 137 6 202 -37 37 -37 38 -25 81 15 54 6 83 -49 142 -64 69 -210 121
-282 100z m143 -86 c66 -35 119 -88 119 -119 0 -45 -38 -64 -182 -88 -75 -13
-142 -21 -149 -19 -8 3 13 33 58 80 74 78 90 109 79 153 -8 33 3 32 75 -7z
m163 -271 c35 -46 33 -82 -4 -117 -70 -65 -152 -85 -379 -91 -72 -2 -85 0 -97
16 -8 10 -14 27 -14 38 0 33 32 87 59 102 31 16 174 50 276 65 38 6 71 13 74
16 2 2 17 4 32 4 20 0 35 -10 53 -33z m-39 -261 c39 -16 75 -68 75 -106 0 -33
-34 -88 -62 -100 -35 -14 -525 -32 -548 -20 -22 12 -34 59 -25 99 7 33 72 98
107 106 25 6 308 32 376 34 23 0 58 -5 77 -13z m-10 -289 c3 -7 -46 -129 -108
-272 -63 -143 -135 -315 -161 -383 -28 -71 -53 -121 -59 -119 -35 11 -194 718
-170 756 8 13 35 17 134 21 253 12 359 11 364 -3z"/>
<path d="M3107 2936 c-87 -31 -146 -91 -187 -191 -15 -37 -29 -54 -49 -62 -20
-7 -30 -19 -34 -43 -8 -38 -3 -50 24 -50 10 0 19 -4 19 -10 0 -5 -18 -91 -40
-191 -47 -213 -47 -213 -21 -199 11 5 40 10 66 10 69 0 86 23 114 150 12 58
29 135 38 172 l14 67 62 3 c60 3 61 3 70 37 11 43 0 54 -62 61 l-48 5 17 69
c16 65 37 96 65 96 7 0 10 -12 7 -29 -5 -35 26 -71 62 -71 14 0 38 12 55 26
25 21 31 33 31 65 0 82 -98 122 -203 85z"/>
<path d="M1474 2881 c-73 -33 -83 -117 -17 -142 59 -22 143 27 143 85 0 61
-59 88 -126 57z"/>
<path d="M1458 2686 c-21 -8 -49 -21 -63 -30 -21 -14 -23 -19 -13 -35 9 -15 7
-41 -10 -120 -33 -151 -30 -181 19 -206 40 -21 76 -18 135 9 82 38 121 106 53
92 -18 -3 -34 0 -44 10 -18 19 -19 7 9 133 26 115 24 138 -11 152 -30 11 -30
11 -75 -5z"/>
<path d="M1840 2691 c-72 -22 -148 -90 -176 -157 -21 -50 -18 -120 8 -166 67
-119 254 -118 362 3 59 64 41 95 -37 65 -80 -30 -129 -18 -153 39 -18 43 -9
87 24 120 33 34 38 32 34 -14 -3 -31 0 -42 19 -55 78 -54 168 44 113 123 -31
44 -122 63 -194 42z"/>
<path d="M2315 2690 c-89 -23 -154 -72 -189 -141 -48 -97 -31 -185 47 -243 24
-17 43 -21 111 -21 78 0 86 2 142 36 62 39 107 91 97 115 -8 21 -25 18 -91
-16 -72 -36 -115 -39 -137 -7 -15 22 -15 22 37 33 109 22 178 77 178 141 0 82
-90 130 -195 103z m62 -97 c7 -19 -29 -53 -58 -53 -26 0 -24 16 6 45 28 29 43
31 52 8z"/>
<path d="M3305 2680 c-65 -30 -69 -34 -55 -57 10 -16 9 -37 -9 -112 -28 -123
-28 -171 2 -199 31 -29 103 -30 157 -2 36 18 40 19 40 4 0 -9 -17 -34 -39 -55
-31 -31 -46 -39 -75 -39 -35 0 -68 21 -78 50 -6 18 -55 -15 -64 -43 -28 -88
25 -148 131 -149 120 -1 232 72 278 182 27 68 91 391 80 409 -18 29 -58 36
-105 17 -65 -25 -84 -42 -68 -61 10 -12 9 -29 -5 -87 -24 -98 -54 -131 -85
-93 -10 13 -9 31 5 97 22 103 22 128 -1 145 -25 18 -62 16 -109 -7z"/>
<path d="M2588 2553 c-20 -5 -33 -44 -24 -68 4 -12 26 -15 105 -15 92 0 101 2
115 22 9 12 16 30 16 40 0 16 -10 18 -84 18 -46 0 -90 2 -98 4 -7 2 -21 2 -30
-1z"/>
<path d="M2806 1985 c-9 -9 -25 -46 -36 -82 -23 -74 -32 -88 -75 -115 -16 -10
-23 -18 -15 -18 9 0 26 7 38 16 20 14 22 14 22 -1 0 -12 10 -15 57 -12 45 3
60 8 75 28 40 52 57 69 68 69 8 0 10 -8 6 -22 -19 -68 -19 -80 -1 -77 10 2 20
10 23 18 3 9 0 11 -8 6 -10 -6 -12 -2 -6 16 19 72 20 69 -8 69 -14 0 -26 5
-26 10 0 22 -18 8 -23 -18 -6 -30 -57 -92 -76 -92 -8 0 -6 10 4 30 8 16 15 39
14 52 0 19 -2 18 -12 -9 -14 -37 -42 -73 -57 -73 -21 0 -8 38 30 89 42 56 56
91 46 116 -7 19 -21 19 -40 0z m4 -80 c-12 -19 -24 -35 -26 -35 -7 0 4 35 24
80 14 32 16 33 19 12 3 -12 -5 -38 -17 -57z"/>
<path d="M3415 1941 c-17 -56 -20 -60 -47 -59 -38 1 -69 -30 -71 -73 -2 -40
23 -51 54 -23 18 16 19 16 19 0 0 -21 31 -18 38 3 3 8 0 11 -7 7 -18 -11 -13
14 19 109 34 101 33 95 22 95 -5 0 -17 -27 -27 -59z m-25 -81 c0 -16 -61 -80
-71 -74 -14 8 -11 37 7 62 15 22 64 31 64 12z"/>
<path d="M1630 1934 c0 -8 5 -12 10 -9 6 3 10 10 10 16 0 5 -4 9 -10 9 -5 0
-10 -7 -10 -16z"/>
<path d="M2097 1894 c-4 -4 -7 -15 -7 -24 0 -23 -39 -72 -54 -67 -6 3 -19 -3
-29 -11 -16 -14 -19 -14 -33 0 -14 14 -14 19 -2 44 12 24 19 29 48 27 32 -1
33 0 17 12 -44 32 -112 -37 -86 -86 8 -16 19 -19 52 -17 35 3 46 9 72 44 46
64 84 69 59 9 -8 -19 -14 -39 -14 -44 0 -11 148 -12 156 0 3 5 14 3 24 -4 15
-9 24 -9 39 0 13 8 22 8 29 1 12 -12 42 -4 42 11 0 6 -7 8 -15 5 -13 -5 -13
-1 0 37 8 23 13 44 11 46 -2 2 -18 5 -35 5 -34 1 -59 -16 -72 -49 -10 -26 -54
-57 -69 -48 -7 4 -1 17 15 37 28 33 32 53 11 61 -23 9 -53 -20 -60 -59 -5 -24
-12 -34 -20 -31 -8 3 -19 0 -26 -6 -10 -10 -11 -7 -5 13 20 69 19 80 -8 80
-14 0 -27 5 -29 11 -2 5 -7 7 -11 3z m153 -38 c0 -16 -28 -42 -36 -33 -8 7 14
47 26 47 6 0 10 -6 10 -14z m130 0 c0 -20 -50 -77 -61 -70 -26 15 8 84 42 84
10 0 19 -6 19 -14z"/>
<path d="M1699 1877 c-33 -17 -53 -61 -39 -86 9 -18 20 -20 98 -19 82 1 112 9
112 29 0 5 -11 2 -26 -7 -36 -24 -51 -4 -19 26 28 26 33 55 11 63 -23 9 -53
-20 -60 -58 -7 -35 -19 -44 -31 -24 -5 7 -14 4 -26 -7 -18 -16 -21 -16 -35 -2
-14 14 -14 19 -2 44 11 24 20 29 46 28 37 -2 40 1 14 15 -12 7 -26 6 -43 -2z
m131 -21 c0 -16 -28 -42 -36 -33 -8 7 14 47 26 47 6 0 10 -6 10 -14z"/>
<path d="M2447 1879 c-9 -6 -17 -15 -17 -21 0 -7 5 -6 15 2 19 16 20 -2 4 -49
-16 -47 -4 -49 20 -4 38 76 81 85 55 11 -17 -48 -17 -48 -5 -48 5 0 14 13 21
29 13 32 57 78 66 69 3 -3 0 -25 -7 -47 -13 -45 -9 -57 18 -47 13 5 14 9 5 15
-10 6 -10 15 -2 35 21 56 0 79 -43 46 -24 -19 -25 -19 -30 0 -6 23 -33 18 -54
-8 -12 -14 -13 -14 -13 0 0 23 -12 28 -33 17z"/>
<path d="M3045 1878 c-31 -18 -44 -40 -45 -75 0 -38 21 -44 52 -16 17 15 18
15 18 0 0 -10 6 -17 14 -17 19 0 30 17 15 22 -9 3 -9 14 1 42 6 20 10 39 8 40
-12 12 -46 13 -63 4z m45 -13 c0 -17 -33 -66 -50 -75 -18 -9 -20 -8 -20 16 0
32 26 64 52 64 10 0 18 -2 18 -5z"/>
<path d="M3155 1875 c-17 -14 -17 -16 -2 -11 21 7 21 8 2 -44 -18 -50 -18 -50
-6 -50 5 0 13 9 16 20 8 26 54 80 67 80 10 0 8 -23 -8 -78 -6 -21 -4 -23 16
-20 13 1 26 10 28 18 5 13 3 13 -13 0 -17 -14 -18 -13 -11 10 24 78 18 98 -25
76 -19 -10 -26 -9 -34 1 -8 11 -14 11 -30 -2z"/>
<path d="M1596 1833 c-7 -27 -10 -52 -6 -57 11 -11 40 0 40 15 0 8 -4 8 -15
-1 -18 -15 -18 -16 0 43 8 26 10 47 5 47 -5 0 -16 -21 -24 -47z"/>
</g>
</svg>
